<svg xmlns="http://www.w3.org/2000/svg" width="100" height="100" viewBox="0 0 100 100" fill="none"><path d="M72.327 38.4672C70.3472 38.2697 65.9906 38.2697 65.9906 35.4973C65.9906 31.7362 71.5342 26.7859 80.4449 21.4399C83.216 19.6575 88.9599 16.8863 88.9599 13.1235C88.9599 10.1536 86.7813 7.9762 82.2272 8.56991C77.8712 9.16365 71.1385 12.1335 62.23 19.6575C52.9242 27.3796 44.2129 40.2489 44.2129 52.9203C44.2129 65.7903 52.9243 78.6603 66.9829 78.6603C78.268 78.6603 87.97 70.1463 87.97 58.4632C87.9684 49.5536 81.8305 39.2589 72.3272 38.4661L72.327 38.4672Z" fill="#F7C06E" fill-opacity="0.7"></path><path d="M44.4927 32.9C42.8666 32.0501 41.0826 31.4938 39.1579 31.3336C37.178 31.136 32.8214 31.136 32.8214 28.3637C32.8214 24.6026 38.365 19.6523 47.2757 14.3063C50.048 12.5239 55.7897 9.75273 55.7897 5.98987C55.7897 3.02002 53.6112 0.842589 49.057 1.4363C44.701 2.03005 37.9683 4.99987 29.0599 12.5239C19.7552 20.246 11.0427 33.1153 11.0427 45.7882C11.0427 58.6582 19.7542 71.5282 33.8127 71.5282C37.118 71.5282 40.2854 70.7932 43.114 69.4667C40.34 64.4517 38.8617 58.6492 38.8617 52.921C38.8623 45.849 41.1402 38.9902 44.494 32.8996L44.4927 32.9Z" fill="#F7C06E" fill-opacity="0.7"></path></svg>