<svg xmlns:xlink="http://www.w3.org/1999/xlink"  xmlns="http://www.w3.org/2000/svg" width="787" height="837" viewBox="0 0 787 837" fill="none"><path fill-rule="evenodd" clip-rule="evenodd" d="M183.264 -77.8393C275.737 -73.4628 381.755 -121.948 455.085 -65.4404C528.876 -8.57773 490.707 115.258 538.001 195.518C594.101 290.724 722.707 332.972 752.55 439.371C787.319 563.335 820.671 746.687 711.921 815.604C589.041 893.477 438.282 733.972 292.84 730.701C207.886 728.791 136.327 817.985 53.1097 800.787C-31.364 783.329 -88.08 706.76 -143.372 640.553C-197.803 575.378 -235.27 501.853 -263.444 421.747C-297.571 324.716 -354.678 223.968 -324.47 125.646C-293.63 25.2697 -203.08 -52.9131 -105.61 -91.9766C-14.2724 -128.582 84.9749 -82.491 183.264 -77.8393Z" fill="#F7C06E" fill-opacity="0.53"></path></svg>