<svg xmlns:xlink="http://www.w3.org/1999/xlink"  xmlns="http://www.w3.org/2000/svg" width="594" height="434" viewBox="0 0 594 434" fill="none"><path fill-rule="evenodd" clip-rule="evenodd" d="M218.149 1.62056C282.27 12.6395 286.222 117.062 343.393 148.116C382.88 169.564 453.493 103.197 476.365 141.876C504.367 189.229 433.549 243.834 432.52 298.837C432.006 326.37 456.298 347.616 472.096 370.173C510.074 424.399 606.701 461.355 591.465 525.781C578.519 580.519 484.019 554.447 427.844 557.285C390.339 559.179 354.056 550.14 318.015 539.595C292.214 532.047 272.474 496.835 246.641 504.272C179.621 523.563 139.514 611.63 69.776 611.052C18.1511 610.623 -27.1263 552.517 -37.3664 501.916C-48.0764 448.993 -18.7164 391.838 17.2666 351.579C50.3024 314.619 135.78 338.233 151.08 291.08C171.19 229.102 82.3135 169.255 97.0216 105.778C109.194 53.2432 165.002 -7.51268 218.149 1.62056Z" fill="#F7C06E" fill-opacity="0.53"></path></svg>